<svg width="124" height="124" viewBox="0 0 124 124" fill="none" xmlns="http://www.w3.org/2000/svg">
<path d="M78.2267 107.78C84.0299 107.78 88.9733 102.272 88.9733 97.0335V72.8535C88.9733 63.9875 71.4294 59.4202 62.1067 59.4202C52.7839 59.4202 35.24 63.9875 35.24 72.8535V97.0335C35.24 102.272 40.1835 107.78 45.9867 107.78" stroke="white" stroke-width="5" stroke-miterlimit="10" stroke-linejoin="round"/>
<path d="M110.467 113.153C115.706 113.153 121.213 110.332 121.213 105.093V80.9131C121.213 72.0471 105.443 67.4797 97.0333 67.4797C96.2004 67.4797 95.287 67.5335 94.3466 67.6141" stroke="white" stroke-width="5" stroke-miterlimit="10" stroke-linejoin="round"/>
<path d="M62.1066 51.3597C68.3666 51.3597 72.8533 47.4103 72.8533 41.6877V36.8517C72.8533 31.1291 68.3666 27.1797 62.1066 27.1797C55.8467 27.1797 51.36 31.1291 51.36 36.8517V41.6877C51.36 47.4103 55.8467 51.3597 62.1066 51.3597Z" stroke="white" stroke-width="5" stroke-miterlimit="10" stroke-linejoin="round"/>
<path d="M110.467 123.9V86.2866" stroke="white" stroke-width="5" stroke-miterlimit="10" stroke-linejoin="round"/>
<path d="M78.2266 123.9V78.2268" stroke="white" stroke-width="5" stroke-miterlimit="10" stroke-linejoin="round"/>
<path d="M45.9866 78.2268V123.9" stroke="white" stroke-width="5" stroke-miterlimit="10" stroke-linejoin="round"/>
<path d="M99.72 59.4197C105.98 59.4197 110.467 55.4703 110.467 49.7477V44.9117C110.467 39.1891 105.98 35.2397 99.72 35.2397C93.46 35.2397 88.9733 39.1891 88.9733 44.9117V49.7477C88.9733 55.4703 93.46 59.4197 99.72 59.4197Z" stroke="white" stroke-width="5" stroke-miterlimit="10" stroke-linejoin="round"/>
<path d="M13.7467 113.153C8.50766 113.153 3 110.332 3 105.093V80.9131C3 72.0471 18.7707 67.4797 27.18 67.4797C28.0129 67.4797 28.9263 67.5335 29.8667 67.6141" stroke="white" stroke-width="5" stroke-miterlimit="10" stroke-linejoin="round"/>
<path d="M13.7467 123.9V86.2866" stroke="white" stroke-width="5" stroke-miterlimit="10" stroke-linejoin="round"/>
<path d="M24.4933 59.4197C18.2334 59.4197 13.7467 55.4703 13.7467 49.7477V44.9117C13.7467 39.1891 18.2334 35.2397 24.4933 35.2397C30.7533 35.2397 35.24 39.1891 35.24 44.9117V49.7477C35.24 55.4703 30.7533 59.4197 24.4933 59.4197Z" stroke="white" stroke-width="5" stroke-miterlimit="10" stroke-linejoin="round"/>
<path d="M37.9266 27.18C31.6667 27.18 27.18 23.2306 27.18 17.508V12.672C27.18 6.9494 31.6667 3 37.9266 3C44.1866 3 48.6733 6.9494 48.6733 12.672V17.508C48.6733 23.2306 44.1866 27.18 37.9266 27.18Z" stroke="white" stroke-width="5" stroke-miterlimit="10" stroke-linejoin="round"/>
<path d="M86.2866 27.18C80.0267 27.18 75.54 23.2306 75.54 17.508V12.672C75.54 6.9494 80.0267 3 86.2866 3C92.5466 3 97.0333 6.9494 97.0333 12.672V17.508C97.0333 23.2306 92.5466 27.18 86.2866 27.18Z" stroke="white" stroke-width="5" stroke-miterlimit="10" stroke-linejoin="round"/>
</svg>
