<svg width="127" height="127" viewBox="0 0 127 127" fill="none" xmlns="http://www.w3.org/2000/svg">
<path d="M13.5228 89.4435C7.84047 89.4435 3 84.0506 3 78.9208V55.2445C3 46.5632 9.68196 42.0911 16.1535 42.0911C25.282 42.0911 74.0287 42.0911 74.0287 42.0911C74.0287 42.0911 71.2402 55.2445 60.8752 55.2445H39.8297V126.273" stroke="white" stroke-width="5" stroke-miterlimit="10" stroke-linejoin="round"/>
<path d="M26.6762 34.1993C32.8058 34.1993 37.199 29.9112 37.199 23.6765V18.4151C37.199 12.1804 32.8058 7.89233 26.6762 7.89233C20.5467 7.89233 16.1535 12.1804 16.1535 18.4151V23.6765C16.1535 29.9112 20.5467 34.1993 26.6762 34.1993Z" stroke="white" stroke-width="5" stroke-miterlimit="10" stroke-linejoin="round"/>
<path d="M13.5228 60.5059V126.273" stroke="white" stroke-width="5" stroke-miterlimit="10" stroke-linejoin="round"/>
<path d="M26.6762 86.8132V126.274" stroke="white" stroke-width="5" stroke-miterlimit="10" stroke-linejoin="round"/>
<path d="M92.4435 15.7845V36.83C102.966 32.8314 114.199 34.8833 124.091 42.0914L115.962 28.938L124.117 21.0459C114.252 13.8378 102.966 11.7858 92.4435 15.7845Z" stroke="white" stroke-width="5" stroke-miterlimit="10" stroke-linejoin="round"/>
<path d="M63.506 7.89147V28.9633C71.398 25.5171 84.5515 25.333 92.4436 28.9633V7.89147C84.5515 4.26111 71.398 4.44526 63.506 7.89147Z" stroke="white" stroke-width="5" stroke-miterlimit="10" stroke-linejoin="round"/>
<path d="M63.506 0V42.0911" stroke="white" stroke-width="5" stroke-miterlimit="10" stroke-linejoin="round"/>
<path d="M63.506 55.2444V126.273" stroke="white" stroke-width="5" stroke-miterlimit="10" stroke-linejoin="round"/>
</svg>
