<svg width="126" height="129" viewBox="0 0 126 129" fill="none" xmlns="http://www.w3.org/2000/svg">
<path d="M85.506 72.4734L101.538 56.441V48.4248H61.4574H21.3765V56.441L37.4088 72.4734" stroke="white" stroke-width="5" stroke-miterlimit="10"/>
<path d="M37.4089 85.8339V59.1133" stroke="white" stroke-width="5" stroke-miterlimit="10"/>
<path d="M85.506 85.8339V59.1133" stroke="white" stroke-width="5" stroke-miterlimit="10"/>
<path d="M82.834 48.4251V37.7368C82.834 31.1903 66.5611 27.0486 61.4575 27.0486C56.3539 27.0486 40.081 31.1903 40.081 37.7368V48.4251" stroke="white" stroke-width="5" stroke-miterlimit="10"/>
<path d="M61.4575 27.0486C67.5765 27.0486 72.1457 22.4259 72.1457 16.7344V13.3142C72.1457 7.62267 67.5765 3 61.4575 3C55.3385 3 50.7692 7.62267 50.7692 13.3142V16.7611C50.7692 22.4259 55.3385 27.0486 61.4575 27.0486Z" stroke="white" stroke-width="5" stroke-miterlimit="10"/>
<path d="M114.899 125.914V120.838C114.899 113.302 108.994 107.21 101.538 107.21V104.538C101.538 97.0027 95.6332 90.9104 88.1782 90.9104C80.7231 90.9104 74.8178 97.0027 74.8178 104.538C74.8178 97.0027 68.9126 90.9104 61.4575 90.9104C54.0025 90.9104 48.0972 97.0027 48.0972 104.538C48.0972 97.0027 42.1919 90.9104 34.7369 90.9104C27.2818 90.9104 21.3766 97.0027 21.3766 104.538V107.21C13.9215 107.21 8.01624 113.302 8.01624 120.838V125.914" stroke="white" stroke-width="5" stroke-miterlimit="10"/>
<path d="M34.7368 125.915V120.838C34.7368 113.303 28.8315 107.21 21.3765 107.21" stroke="white" stroke-width="5" stroke-miterlimit="10"/>
<path d="M61.4575 125.915V120.838C61.4575 113.303 55.5522 107.21 48.0971 107.21C40.6421 107.21 34.7368 113.303 34.7368 120.838V125.915" stroke="white" stroke-width="5" stroke-miterlimit="10"/>
<path d="M88.1781 125.915V120.838C88.1781 113.303 82.2728 107.21 74.8178 107.21C67.3627 107.21 61.4575 113.303 61.4575 120.838V125.915" stroke="white" stroke-width="5" stroke-miterlimit="10"/>
<path d="M101.538 107.21C94.0834 107.21 88.1781 113.303 88.1781 120.838V125.915" stroke="white" stroke-width="5" stroke-miterlimit="10"/>
<path d="M0 125.915H125.587" stroke="white" stroke-width="5" stroke-miterlimit="10"/>
<path d="M48.0972 85.8337V61.7852H74.8178V85.8337" stroke="white" stroke-width="5" stroke-miterlimit="10"/>
</svg>
