<svg xmlns="http://www.w3.org/2000/svg" width="196.63" height="96.941" viewBox="0 0 196.63 96.941">
    <g data-name="组 93">
        <path data-name="路径 190" d="m1365.97 1463.213 1.371 48.386 7.539 11.926-4.112 13.844-18.094 4.8-58.118 1.371-27.277 2.879-67.726-2.972-18.9-16.081.274-11.377 7.464-6.64 49.128-16.048 2.623-4.453 6.632-.13 3.648-2.474s5.872-3.143 6.4-3.251 5.57-1.6 5.57-1.6l5.233-3.658 5.28-2.461s4.66-2.947 4.729-3.152 6.3-3.221 6.3-3.221l11.308-7.951s4.729.206 5.415-.479 11.719-8.773 11.719-8.773l5.552 1.165 4.386 4.249 1.1 9.458-2.468 3.564 5.209 1.919 23.3-.548z" style="fill-rule:evenodd;fill:#fff" transform="translate(-1178.683 -1450.738)"/>
        <path data-name="路径 191" d="m1335.81 1505.229 16.478 15.887-52.109 1.791-31.355 6.211 10.968-17.645z" style="fill:none" transform="translate(-1178.683 -1450.738)"/>
        <path data-name="路径 192" d="m1307.379 1465.654 5.414-5.209c4.558-4.558-1.956-8.663-1.956-8.663" style="stroke-width:.914px;stroke-linejoin:round;stroke:#d1d3d4;fill:none;fill-rule:evenodd" transform="translate(-1178.683 -1450.738)"/>
        <g data-name="组 86">
            <path data-name="直线 56" transform="translate(130.384 16.04)" style="stroke-width:.914px;stroke-linejoin:round;stroke:#d1d3d4;fill:none" d="m0 0 15.018 6.833"/>
            <path data-name="直线 57" transform="translate(124.714 19.12)" style="stroke-width:.914px;stroke-linejoin:round;stroke:#d1d3d4;fill:none" d="m0 0 13.407 7.81"/>
            <path data-name="直线 58" transform="translate(119.044 22.2)" style="stroke-width:.914px;stroke-linejoin:round;stroke:#d1d3d4;fill:none" d="m0 0 11.796 8.787"/>
            <path data-name="直线 59" transform="translate(113.374 25.28)" style="stroke-width:.914px;stroke-linejoin:round;stroke:#d1d3d4;fill:none" d="m0 0 10.186 9.764"/>
            <path data-name="直线 60" transform="translate(107.704 28.36)" style="stroke-width:.914px;stroke-linejoin:round;stroke:#d1d3d4;fill:none" d="m0 0 8.575 10.741"/>
            <path data-name="直线 61" transform="translate(102.034 31.439)" style="stroke-width:.914px;stroke-linejoin:round;stroke:#d1d3d4;fill:none" d="m0 0 6.964 11.718"/>
            <path data-name="直线 62" transform="translate(96.364 34.519)" style="stroke-width:.914px;stroke-linejoin:round;stroke:#d1d3d4;fill:none" d="m0 0 5.354 12.695"/>
            <path data-name="直线 63" transform="translate(90.694 37.599)" style="stroke-width:.914px;stroke-linejoin:round;stroke:#d1d3d4;fill:none" d="m0 0 3.743 13.672"/>
            <path data-name="直线 64" transform="translate(85.024 40.679)" style="stroke-width:.914px;stroke-linejoin:round;stroke:#d1d3d4;fill:none" d="m0 0 2.132 14.649"/>
            <path data-name="直线 65" transform="translate(79.354 43.758)" style="stroke-width:.914px;stroke-linejoin:round;stroke:#d1d3d4;fill:none" d="m0 0 .522 15.626"/>
            <path data-name="直线 66" transform="translate(72.595 46.838)" style="stroke-width:.914px;stroke-linejoin:round;stroke:#d1d3d4;fill:none" d="M1.089 0 0 16.603"/>
            <path data-name="直线 67" transform="translate(65.315 49.918)" style="stroke-width:.914px;stroke-linejoin:round;stroke:#d1d3d4;fill:none" d="M2.7 0 0 17.58"/>
            <path data-name="直线 68" transform="translate(58.034 52.998)" style="stroke-width:.914px;stroke-linejoin:round;stroke:#d1d3d4;fill:none" d="M4.31 0 0 18.557"/>
            <path data-name="直线 69" transform="translate(50.753 56.078)" style="stroke-width:.914px;stroke-linejoin:round;stroke:#d1d3d4;fill:none" d="M5.921 0 0 19.534"/>
        </g>
        <path data-name="路径 193" d="m1324.885 1473.006 24.621 21.365-72.214 6.1 47.093-27.949" style="fill:none" transform="translate(-1178.683 -1450.738)"/>
        <path data-name="路径 194" d="m1221.938 1498.343-33.549 11 18.724 16.14 22.323.863z" style="fill:none;fill-rule:evenodd" transform="translate(-1178.683 -1450.738)"/>
        <g data-name="组 87">
            <path data-name="直线 70" transform="translate(9.705 47.605)" style="stroke-width:.914px;stroke-linejoin:round;stroke:#d1d3d4;fill:none" d="M33.549 0 0 11.004"/>
            <path data-name="直线 71" transform="translate(12.826 52.273)" style="stroke-width:.914px;stroke-linejoin:round;stroke:#d1d3d4;fill:none" d="M31.678 0 0 9.026"/>
            <path data-name="直线 72" transform="translate(15.947 56.94)" style="stroke-width:.914px;stroke-linejoin:round;stroke:#d1d3d4;fill:none" d="M29.807 0 0 7.048"/>
            <path data-name="直线 73" transform="translate(19.068 61.608)" style="stroke-width:.914px;stroke-linejoin:round;stroke:#d1d3d4;fill:none" d="M27.936 0 0 5.07"/>
            <path data-name="直线 74" transform="translate(22.188 66.276)" style="stroke-width:.914px;stroke-linejoin:round;stroke:#d1d3d4;fill:none" d="M26.065 0 0 3.092"/>
            <path data-name="直线 75" transform="translate(25.309 70.944)" style="stroke-width:.914px;stroke-linejoin:round;stroke:#d1d3d4;fill:none" d="M24.194 0 0 1.114"/>
            <path data-name="直线 76" transform="translate(28.43 74.748)" style="stroke-width:.914px;stroke-linejoin:round;stroke:#d1d3d4;fill:none" d="M22.323.863 0 0"/>
        </g>
        <g data-name="组 88">
            <path data-name="路径 195" d="m1366.693 1509.318 7.576 12.682-2.671 15.736" style="stroke-width:.914px;stroke-linejoin:round;stroke:#d1d3d4;fill:none;fill-rule:evenodd" transform="translate(-1178.683 -1450.738)"/>
            <path data-name="路径 196" d="m1360.974 1513.9 5.268 9.216-3.007 17.1" style="stroke-width:.914px;stroke-linejoin:round;stroke:#d1d3d4;fill:none;fill-rule:evenodd" transform="translate(-1178.683 -1450.738)"/>
            <path data-name="路径 197" d="m1355.08 1518.769 3.135 5.47-2.84 17.64" style="stroke-width:.914px;stroke-linejoin:round;stroke:#d1d3d4;fill:none;fill-rule:evenodd" transform="translate(-1178.683 -1450.738)"/>
            <path data-name="路径 198" d="m1347.884 1521.236 2.3 4.122-2.51 16.938" style="stroke-width:.914px;stroke-linejoin:round;stroke:#d1d3d4;fill:none;fill-rule:evenodd" transform="translate(-1178.683 -1450.738)"/>
            <path data-name="路径 199" d="m1339.934 1521.647 2.227 4.831-2.179 16.235" style="stroke-width:.914px;stroke-linejoin:round;stroke:#d1d3d4;fill:none;fill-rule:evenodd" transform="translate(-1178.683 -1450.738)"/>
            <path data-name="路径 200" d="m1331.778 1521.99 2.356 5.607-1.849 15.533" style="stroke-width:.914px;stroke-linejoin:round;stroke:#d1d3d4;fill:none;fill-rule:evenodd" transform="translate(-1178.683 -1450.738)"/>
            <path data-name="路径 201" d="m1323.485 1522.264 2.622 6.453-1.518 14.831" style="stroke-width:.914px;stroke-linejoin:round;stroke:#d1d3d4;fill:none;fill-rule:evenodd" transform="translate(-1178.683 -1450.738)"/>
            <path data-name="路径 202" d="m1315.329 1522.95 2.75 6.887-1.105 12.988" style="stroke-width:.914px;stroke-linejoin:round;stroke:#d1d3d4;fill:none;fill-rule:evenodd" transform="translate(-1178.683 -1450.738)"/>
            <path data-name="路径 203" d="m1306.765 1521.419 3.288 9.538-.823 11.526" style="stroke-width:.914px;stroke-linejoin:round;stroke:#d1d3d4;fill:none;fill-rule:evenodd" transform="translate(-1178.683 -1450.738)"/>
            <path data-name="路径 204" d="m1299.274 1522.931 2.752 9.144-.4 10.27" style="stroke-width:.914px;stroke-linejoin:round;stroke:#d1d3d4;fill:none;fill-rule:evenodd" transform="translate(-1178.683 -1450.738)"/>
            <path data-name="路径 205" d="m1291.782 1524.444 2.218 8.756-.189 9.7" style="stroke-width:.914px;stroke-linejoin:round;stroke:#d1d3d4;fill:none;fill-rule:evenodd" transform="translate(-1178.683 -1450.738)"/>
            <path data-name="路径 206" d="m1284.291 1525.957 1.68 8.359-.078 10.223" style="stroke-width:.914px;stroke-linejoin:round;stroke:#d1d3d4;fill:none;fill-rule:evenodd" transform="translate(-1178.683 -1450.738)"/>
            <path data-name="路径 207" d="m1276.8 1527.469 1.143 7.965.465 10.62" style="stroke-width:.914px;stroke-linejoin:round;stroke:#d1d3d4;fill:none;fill-rule:evenodd" transform="translate(-1178.683 -1450.738)"/>
            <path data-name="直线 77" transform="translate(90.626 78.244)" style="stroke-width:.914px;stroke-linejoin:round;stroke:#d1d3d4;fill:none" d="m0 0 1.403 17.49"/>
        </g>
        <g data-name="组 89">
            <path data-name="直线 78" transform="translate(166.768 23.688)" style="stroke-width:.914px;stroke-linejoin:round;stroke:#d1d3d4;fill:none" d="M20.835 0 0 16.414"/>
            <path data-name="直线 79" transform="translate(162.868 17.623)" style="stroke-width:.914px;stroke-linejoin:round;stroke:#d1d3d4;fill:none" d="M24.015 0 0 18.895"/>
            <path data-name="直线 80" transform="translate(158.968 14.642)" style="stroke-width:.914px;stroke-linejoin:round;stroke:#d1d3d4;fill:none" d="M23.254 0 0 18.292"/>
            <path data-name="直线 81" transform="translate(155.069 21.495)" style="stroke-width:.914px;stroke-linejoin:round;stroke:#d1d3d4;fill:none" d="M9.883 0 0 7.854"/>
            <path data-name="直线 82" transform="translate(151.169 21.358)" style="stroke-width:.914px;stroke-linejoin:round;stroke:#d1d3d4;fill:none" d="M5.832 0 0 4.407"/>
        </g>
        <g data-name="组 90">
            <path data-name="直线 83" transform="translate(150.747 44.198)" style="stroke-width:.914px;stroke-linejoin:round;stroke:#d1d3d4;fill:none" d="M13.364 0 0 10.897"/>
            <path data-name="直线 84" transform="translate(145.232 44.81)" style="stroke-width:.914px;stroke-linejoin:round;stroke:#d1d3d4;fill:none" d="M11.473 0 0 10.912"/>
            <path data-name="直线 85" transform="translate(139.717 45.422)" style="stroke-width:.914px;stroke-linejoin:round;stroke:#d1d3d4;fill:none" d="M9.582 0 0 10.926"/>
            <path data-name="直线 86" transform="translate(134.201 46.035)" style="stroke-width:.914px;stroke-linejoin:round;stroke:#d1d3d4;fill:none" d="M7.69 0 0 10.94"/>
            <path data-name="直线 87" transform="translate(128.686 46.647)" style="stroke-width:.914px;stroke-linejoin:round;stroke:#d1d3d4;fill:none" d="M5.799 0 0 10.955"/>
            <path data-name="直线 88" transform="translate(123.171 47.259)" style="stroke-width:.914px;stroke-linejoin:round;stroke:#d1d3d4;fill:none" d="M3.907 0 0 10.969"/>
            <path data-name="直线 89" transform="translate(117.655 47.872)" style="stroke-width:.914px;stroke-linejoin:round;stroke:#d1d3d4;fill:none" d="M2.016 0 0 10.983"/>
            <path data-name="直线 90" transform="translate(112.14 48.484)" style="stroke-width:.914px;stroke-linejoin:round;stroke:#d1d3d4;fill:none" d="M.124 0 0 10.998"/>
            <path data-name="直线 91" transform="translate(104.857 49.096)" style="stroke-width:.914px;stroke-linejoin:round;stroke:#d1d3d4;fill:none" d="m0 0 1.767 11.012"/>
            <path data-name="直线 92" transform="translate(97.451 49.709)" style="stroke-width:.914px;stroke-linejoin:round;stroke:#d1d3d4;fill:none" d="m0 0 3.659 11.026"/>
        </g>
        <g data-name="组 92">
            <g data-name="组 91">
                <path data-name="路径 208" d="m1366.965 1462.219-.528 20.4.256 26.7 7.576 12.682-2.671 15.736-19.241 5.52-53.62-1.065-27.158 4.445-72.027-3.191-19.826-15.173.333-11.735 8.328-7.189 49.128-16.048.783-2.707 6.464-2.444 2.008.567 2.492-1.392 1.116-2.169 6.7-2.844 2.528.665 2.781-1.581.53-1.92 6.773-3.02 1.839.62 3.294-2.341.125-1.509 5.973-3.487 1.721.069 12.095-8.786 4.913-.378 11.189-8.861 6.083.54 6.6 4.157.427 8.643-4.261 4.845 4.7 2.553 24.565-.772z" style="stroke-miterlimit:10;stroke-width:.435px;stroke:#231f20;fill:none" transform="translate(-1178.683 -1450.738)"/>
            </g>
            <path data-name="路径 209" d="m1309.067 1466.778-10.412-5.518-3.919-.239-12.095 8.786-7.693 3.418-1.767 2.766-5.561 1.746-6.6 3.739-10.639 3.678-3.608 3.561-6.117 1.05-1.644 2.672-3.652 14.378z" style="stroke:#231f20;stroke-width:.914px;stroke-linejoin:round;fill:none" transform="translate(-1178.683 -1450.738)"/>
            <path data-name="路径 210" d="m1366.195 1481.434-30.385 23.8 31.721 5.2z" style="stroke:#231f20;stroke-width:.914px;stroke-linejoin:round;fill:none" transform="translate(-1178.683 -1450.738)"/>
            <path data-name="路径 211" d="m1335.81 1505.229 16.478 15.887 14.106-11.051z" style="stroke:#231f20;stroke-width:.914px;stroke-linejoin:round;fill:none" transform="translate(-1178.683 -1450.738)"/>
            <path data-name="路径 212" d="m1335.81 1505.229-56.018 6.244-10.968 17.645 29.2-5.51 54.267-2.492z" style="stroke:#231f20;stroke-width:.914px;stroke-linejoin:round;fill:none" transform="translate(-1178.683 -1450.738)"/>
            <path data-name="路径 213" d="m1324.384 1472.521 25.122 21.851 16.689-12.937.706-18.139-17.951 8.454z" style="stroke:#231f20;stroke-width:.914px;stroke-linejoin:round;fill:none" transform="translate(-1178.683 -1450.738)"/>
            <path data-name="路径 214" d="m1324.084 1473.611-94.648 52.738 5.921-19.534 73.709-40.037z" style="stroke:#231f20;stroke-width:.914px;stroke-linejoin:round;fill:none" transform="translate(-1178.683 -1450.738)"/>
            <path data-name="路径 215" d="m1324.885 1473.006 24.621 21.365-73.372 6.075z" style="stroke:#231f20;stroke-width:.914px;stroke-linejoin:round;fill:none" transform="translate(-1178.683 -1450.738)"/>
            <path data-name="路径 216" d="m1276.134 1500.447 3.658 11.026 56.018-6.244 13.7-10.858z" style="stroke:#231f20;stroke-width:.914px;stroke-linejoin:round;fill:none" transform="translate(-1178.683 -1450.738)"/>
            <path data-name="路径 217" d="m1276.134 1500.447-19.411 27.952 12.1.719 10.968-17.645z" style="stroke:#231f20;stroke-width:.914px;stroke-linejoin:round;fill:none" transform="translate(-1178.683 -1450.738)"/>
            <path data-name="路径 218" d="m1276.134 1500.447-46.7 25.9 27.286 2.049z" style="stroke:#231f20;stroke-width:.914px;stroke-linejoin:round;fill:none" transform="translate(-1178.683 -1450.738)"/>
            <path data-name="路径 219" d="m1239.01 1492.437-9.573 33.912-7.5-28.007z" style="stroke:#231f20;stroke-width:.914px;stroke-linejoin:round;fill:none" transform="translate(-1178.683 -1450.738)"/>
            <path data-name="路径 220" d="m1229.436 1526.349-22.323-.863-18.724-16.14 33.549-11z" style="stroke:#231f20;stroke-width:.914px;stroke-linejoin:round;fill:none" transform="translate(-1178.683 -1450.738)"/>
            <path data-name="路径 221" d="m1269.309 1528.982 1.4 17.49-6.279-.228-1.073-17.359z" style="stroke:#231f20;stroke-width:.914px;stroke-linejoin:round;fill:none" transform="translate(-1178.683 -1450.738)"/>
            <path data-name="路径 222" d="m1257.887 1528.5.836 17.523-6.279-.228-.345-17.735z" style="stroke:#231f20;stroke-width:.914px;stroke-linejoin:round;fill:none" transform="translate(-1178.683 -1450.738)"/>
            <path data-name="路径 223" d="m1244.612 1527.6.763 18.429-6.279-.228-.271-18.64z" style="stroke:#231f20;stroke-width:.914px;stroke-linejoin:round;fill:none" transform="translate(-1178.683 -1450.738)"/>
            <path data-name="路径 224" d="m1231.886 1526.551.583 18.262-6.279-.228-.053-18.276z" style="stroke:#231f20;stroke-width:.914px;stroke-linejoin:round;fill:none" transform="translate(-1178.683 -1450.738)"/>
            <path data-name="路径 225" d="m1218.208 1526.132-.4 17.927-6.608-.264 1.2-17.894z" style="stroke:#231f20;stroke-width:.914px;stroke-linejoin:round;fill:none" transform="translate(-1178.683 -1450.738)"/>
            <path data-name="路径 226" d="m1206.974 1525.339-3.3 18.767-7-3.634 5.353-19.362z" style="stroke:#231f20;stroke-width:.914px;stroke-linejoin:round;fill:none" transform="translate(-1178.683 -1450.738)"/>
            <path data-name="路径 227" d="m1197.238 1516.991-7.247 18.921-7.93-6.146 11.1-16.212z" style="stroke:#231f20;stroke-width:.914px;stroke-linejoin:round;fill:none" transform="translate(-1178.683 -1450.738)"/>
            <path data-name="路径 228" d="m1280.761 1469.961 14.037 13.8-6.463 3.9-13.582-14.085z" style="fill:#72f596;stroke:#231f20;stroke-width:.914px;stroke-linejoin:round" transform="translate(-1178.683 -1450.738)"/>
            <path data-name="路径 229" d="m1268.9 1476.93 14.037 13.8-7.009 4.107-13.582-14.085z" style="fill:#72f596;stroke:#231f20;stroke-width:.914px;stroke-linejoin:round" transform="translate(-1178.683 -1450.738)"/>
            <path data-name="路径 230" d="m1256.816 1482.99 14.092 14.376-7.009 4.107-13.637-14.661z" style="fill:#72f596;stroke:#231f20;stroke-width:.914px;stroke-linejoin:round" transform="translate(-1178.683 -1450.738)"/>
            <path data-name="路径 231" d="m1244.366 1488.686 13.675 15.3-7.009 4.107-13.533-16.512z" style="fill:#72f596;stroke:#231f20;stroke-width:.914px;stroke-linejoin:round" transform="translate(-1178.683 -1450.738)"/>
            <path data-name="路径 232" d="m1366.965 1462.219-.528 20.4.256 26.7 7.576 12.682-2.671 15.736-19.241 5.52-53.62-1.065-27.158 4.445-72.027-3.191-19.826-15.173.333-11.735 8.328-7.189 49.128-16.048.783-2.707 6.464-2.444 2.008.567 2.492-1.392 1.116-2.169 6.7-2.844 2.528.665 2.781-1.581.53-1.92 6.773-3.02 1.839.62 3.294-2.341.125-1.509 5.973-3.487 1.721.069 12.095-8.786 4.913-.378 11.189-8.861 6.083.54 6.6 4.157.427 8.643-4.261 4.845 4.7 2.553 24.565-.772z" style="stroke-width:2.088px;stroke:#231f20;stroke-linejoin:round;fill:none" transform="translate(-1178.683 -1450.738)"/>
            <path data-name="路径 233" d="m1188.388 1509.346 18.724 16.14 61.711 3.632 29.2-5.51 54.267-2.492 14.405-11.8 7.576 12.682-2.339 14.815-19.573 6.44-53.62-1.065-27.158 4.445-72.027-3.191-19.826-15.173.333-11.735z" style="stroke:#231f20;stroke-width:.914px;stroke-linejoin:round;fill:none" transform="translate(-1178.683 -1450.738)"/>
        </g>
    </g>
</svg>
