<svg xmlns="http://www.w3.org/2000/svg" width="172.386" height="99.667" viewBox="0 0 172.386 99.667">
    <g data-name="图层 2">
        <g data-name="图层 1-2">
            <path data-name="路径 331" d="M28.446 99.667a3.257 3.257 0 0 1-1.045-.168l-25.08-8.36a3.4 3.4 0 0 1-2.21-4.075l3.435-13.263a3.4 3.4 0 0 1 3.286-2.545h5.914l28.889-8.182 2.539-.972a3.576 3.576 0 0 1 .261-.773 3.379 3.379 0 0 1 1.939-1.761l7.419-2.613a3.445 3.445 0 0 1 2.581.136c.126.063.246.131.361.2l2.952-1.124a3.381 3.381 0 0 1 1.745-1.849l7.158-3.276a3.429 3.429 0 0 1 1.416-.309 3.34 3.34 0 0 1 1.171.209 3.67 3.67 0 0 1 .909.523l.084-.032.783-.485a3.421 3.421 0 0 1 .042-1.322 3.37 3.37 0 0 1 1.5-2.122l6.651-4.18a3.431 3.431 0 0 1 1.813-.522 2.645 2.645 0 0 1 .308 0l.267-.335a3.406 3.406 0 0 1 .272-3.422l4.488-6.442a4.25 4.25 0 0 1 .277-.345 3.4 3.4 0 0 1-.6-2.942l1.009-3.8a3.367 3.367 0 0 1 .8-1.447l.24-19.677v-.977A3.4 3.4 0 0 1 93.401.003h25.467a3.4 3.4 0 0 1 1.891.575l.523.344.256.377a3.275 3.275 0 0 1 .465.794l3.218 7.733h5.183a3.4 3.4 0 0 1 2.712-1.353h6.83a3.387 3.387 0 0 1 2.712 1.353h12.08a3.4 3.4 0 0 1 3.4 3.4v6.49h.173a3.4 3.4 0 0 1 2.524 1.128l2.612 2.926a3.384 3.384 0 0 1 .873 2.273v9.018a3.4 3.4 0 0 1-.784 2.211l-2.879 3.349a3.379 3.379 0 0 1-2.519 1.186v11.072l8.172 20.649h.225a3.4 3.4 0 0 1 3.339 2.764l2.456 12.973a3.386 3.386 0 0 1-2.174 3.825l-17.7 6.385a3.393 3.393 0 0 1-1.155.2z"/>
            <path data-name="路径 332" d="m169.246 89.838-.7-3.7-1.756-9.274a.265.265 0 0 0-.287-.214l-2.231.245-9.275-23.424V38.664h3.062a.273.273 0 0 0 .2-.089l2.874-3.349a.274.274 0 0 0 .062-.173v-9.018a.246.246 0 0 0-.068-.178l-2.612-2.926a.251.251 0 0 0-.193-.088h-3.3v-9.62a.261.261 0 0 0-.261-.261h-14.555V11.87a.261.261 0 0 0-.261-.261h-6.829a.261.261 0 0 0-.261.261v1.092h-9.724l-4.013-9.661a.472.472 0 0 0-.062-.078.038.038 0 0 0-.032-.037.254.254 0 0 0-.146-.047H93.411a.258.258 0 0 0-.261.261v1.045l-.266 21.851-.554-.172a.261.261 0 0 0-.319.183l-1.008 3.8a.26.26 0 0 0 .187.319l1.646.434-.058 4.535-1.567-1.081a.261.261 0 0 0-.361.068l-2.231 3.234-2.247 3.224a.261.261 0 0 0 .065.363l1.364.946-3.966 4.953-.663-1.045a.257.257 0 0 0-.351-.089l-.01.006-3.328 2.09-3.323 2.09a.265.265 0 0 0-.084.36l.988 1.568-3.506 2.179-2.749 1.045-.575-1.265a.285.285 0 0 0-.146-.136.261.261 0 0 0-.2 0l-3.579 1.636-3.574 1.635a.284.284 0 0 0-.136.146.276.276 0 0 0 0 .2l.35.763-7.43 2.837-.361-1.045a.275.275 0 0 0-.135-.151.285.285 0 0 0-.2 0l-3.71 1.306-3.71 1.3a.267.267 0 0 0-.146.136.244.244 0 0 0 0 .2l.434 1.239-5.068 1.933L13.18 74.4H6.816a.266.266 0 0 0-.251.2L3.116 87.845a.256.256 0 0 0 .168.313l25.08 8.36a.172.172 0 0 0 .078 0h122.946l17.692-6.39a.266.266 0 0 0 .166-.29zm-12.43-55.588h-1.819v-7.19h1.866z"/>
            <path data-name="路径 333" d="m568.952 1072.194 30.958-11.794 32.432-20.148 8.846-21.13h39.8v9.337H648.56l-7.864 18.674-38.331 23.094-28.011 10.319h-10.81z" style="stroke-width:.522px;fill:#fff;stroke:#000;stroke-linecap:round;stroke-linejoin:round" transform="translate(-526.254 -1005.899)"/>
            <path data-name="路径 334" d="M563.544 1080.548h-24.077l29.485-8.355z" style="stroke-width:.522px;fill:#fff;stroke:#000;stroke-linecap:round;stroke-linejoin:round" transform="translate(-526.254 -1005.899)"/>
            <path data-name="路径 335" d="M574.354 1080.548h50.129l-22.117-10.319z" style="stroke-width:.522px;fill:#fff;stroke:#000;stroke-linecap:round;stroke-linejoin:round" transform="translate(-526.254 -1005.899)"/>
            <path data-name="路径 336" d="m640.7 1047.135-16.213 33.414-22.117-10.319z" style="stroke-width:.522px;fill:#fff;stroke:#000;stroke-linecap:round;stroke-linejoin:round" transform="translate(-526.254 -1005.899)"/>
            <path data-name="路径 337" d="m609.059 1054.721 10.231-12.786.392-32.641h25.441l4.086 9.828h-8.02l-8.846 21.13z" style="stroke-width:.522px;fill:#fff;stroke:#000;stroke-linecap:round;stroke-linejoin:round" transform="translate(-526.254 -1005.899)"/>
            <path data-name="路径 338" d="m619.681 1013.334 22.488-.11 2.466 5.9h4.415l-3.929-9.828h-25.456z" style="stroke-width:.522px;fill:#fff;stroke:#000;stroke-linecap:round;stroke-linejoin:round" transform="translate(-526.254 -1005.899)"/>
            <path data-name="路径 339" d="M619.582 1019.123h12.268v5.408l-5.4 4.42h-6.881z" style="stroke-width:.522px;fill:#fff;stroke:#000;stroke-linecap:round;stroke-linejoin:round" transform="translate(-526.254 -1005.899)"/>
            <path data-name="路径 340" d="M680.991 1028.46v30.958l-10.272 21.13h-46.236l16.213-33.414 7.864-18.674z" style="stroke-width:.522px;fill:#fff;stroke:#000;stroke-linecap:round;stroke-linejoin:round" transform="translate(-526.254 -1005.899)"/>
            <path data-name="路径 341" d="m680.991 1059.418-12.66 26.047 22-2.461z" style="stroke-width:.522px;fill:#fff;stroke:#000;stroke-linecap:round;stroke-linejoin:round" transform="translate(-526.254 -1005.899)"/>
            <path data-name="路径 342" d="M680.991 1059.418h-46.21l-10.3 21.13h46.236z" style="stroke-width:.522px;fill:#fff;stroke:#000;stroke-linecap:round;stroke-linejoin:round" transform="translate(-526.254 -1005.899)"/>
            <path data-name="路径 343" d="M670.719 1080.548H533.077l-3.438 13.271 25.064 8.35h122.85l17.692-6.385-2.456-12.974-24.458 2.654z" style="stroke-width:.522px;fill:#fff;stroke:#000;stroke-linecap:round;stroke-linejoin:round" transform="translate(-526.254 -1005.899)"/>
            <path data-name="路径 344" d="m531.556 1086.427 23.638 5.518-.491 10.225-25.064-8.35z" style="stroke-width:.522px;fill:#fff;stroke:#000;stroke-linecap:round;stroke-linejoin:round" transform="translate(-526.254 -1005.899)"/>
            <path data-name="路径 345" d="M554.854 1098.47h121.471l18.22-6.38.7 3.694-17.692 6.385H554.7z" style="stroke-width:.522px;fill:#fff;stroke:#000;stroke-linecap:round;stroke-linejoin:round" transform="translate(-526.254 -1005.899)"/>
            <path data-name="路径 346" d="m539.467 1080.548 23.3 4.917h105.564l2.388-4.917z" style="stroke-width:.522px;fill:#fff;stroke:#000;stroke-linecap:round;stroke-linejoin:round" transform="translate(-526.254 -1005.899)"/>
            <path data-name="路径 347" d="M672.7 1076.374h-38.389v-3.934l36.277-.094v-12.629l-18.1.246-3.464-2.508.01-13.376 3.281-3.668h31.01l.052-7.707h-2.388V1029h3.563l2.633 2.931v9.018l-2.874 3.349-31.381.083v11.469l18.387-.052 3.391 3.323-.047 13.313z" style="stroke-width:.522px;fill:#fff;stroke:#000;stroke-linecap:round;stroke-linejoin:round" transform="translate(-526.254 -1005.899)"/>
            <path data-name="矩形 89" transform="rotate(-19.35 207.907 -107.892)" style="stroke-width:.522px;fill:#fff;stroke:#000;stroke-linecap:round;stroke-linejoin:round" d="M0 0h3.929v7.9H0z"/>
            <path data-name="矩形 90" transform="rotate(-19.35 205.947 -119.423)" style="stroke-width:.522px;fill:#fff;stroke:#000;stroke-linecap:round;stroke-linejoin:round" d="M0 0h3.929v7.9H0z"/>
            <path data-name="矩形 91" transform="rotate(-24.58 163.218 -115.538)" style="stroke-width:.523px;fill:#fff;stroke:#000;stroke-linecap:round;stroke-linejoin:round" d="M0 0h3.929v8.365H0z"/>
            <path data-name="矩形 92" transform="rotate(-24.58 161.261 -124.554)" style="stroke-width:.523px;fill:#fff;stroke:#000;stroke-linecap:round;stroke-linejoin:round" d="M0 0h3.929v8.365H0z"/>
            <path data-name="矩形 93" transform="rotate(-32.21 125.394 -106.948)" style="stroke-width:.522px;fill:#fff;stroke:#000;stroke-linecap:round;stroke-linejoin:round" d="M0 0h3.929v9.41H0z"/>
            <path data-name="矩形 94" transform="rotate(-32.21 123.436 -113.751)" style="stroke-width:.522px;fill:#fff;stroke:#000;stroke-linecap:round;stroke-linejoin:round" d="M0 0h3.929v9.41H0z"/>
            <path data-name="矩形 95" transform="rotate(-55.18 82.503 -62.35)" style="stroke-width:.522px;fill:#fff;stroke:#000;stroke-linecap:round;stroke-linejoin:round" d="M0 0h3.929v13.925H0z"/>
            <path data-name="矩形 96" transform="rotate(-55.18 80.543 -66.118)" style="stroke-width:.522px;fill:#fff;stroke:#000;stroke-linecap:round;stroke-linejoin:round" d="M0 0h3.929v13.925H0z"/>
            <path data-name="矩形 97" transform="rotate(-75.17 65.214 -44.174)" style="stroke-width:.522px;fill:#fff;stroke:#000;stroke-linecap:round;stroke-linejoin:round" d="M0 0h3.929v19.902H0z"/>
            <path data-name="矩形 98" transform="translate(133.116 11.871)" style="stroke-width:.522px;fill:#fff;stroke:#000;stroke-linecap:round;stroke-linejoin:round" d="M0 0h6.829v28.743H0z"/>
            <path data-name="矩形 99" transform="translate(133.116 47.924)" style="stroke-width:.522px;fill:#fff;stroke:#000;stroke-linecap:round;stroke-linejoin:round" d="M0 0h6.829v7.937H0z"/>
            <path data-name="矩形 100" transform="translate(133.116 64.33)" style="stroke-width:.522px;fill:#fff;stroke:#000;stroke-linecap:round;stroke-linejoin:round" d="M0 0h6.829v7.806H0z"/>
            <path data-name="矩形 101" transform="translate(113.627 64.33)" style="stroke-width:.522px;fill:#fff;stroke:#000;stroke-linecap:round;stroke-linejoin:round" d="M0 0h6.61v7.806H0z"/>
            <path data-name="矩形 102" d="m154.288 52.688 8.475-3.5 4.701 11.383-8.474 3.5z"/>
            <path data-name="路径 348" d="m685.7 1058.175-.4 7.487 2.221-1.055 1.588 3.887.131-7.174-2.153 1.008z" style="fill:#56ff8b;fill-rule:evenodd" transform="translate(-526.254 -1005.899)"/>
        </g>
    </g>
</svg>
